<svg width="386" height="68" viewBox="0 0 386 68" fill="none" xmlns="http://www.w3.org/2000/svg">
<mask id="mask0_75_223" style="mask-type:luminance" maskUnits="userSpaceOnUse" x="0" y="0" width="71" height="68">
<path d="M70.7103 0.435791H0V67.7377H70.7103V0.435791Z" fill="white"/>
</mask>
<g mask="url(#mask0_75_223)">
<path d="M18.6145 37.1299V47.877L9.30719 53.2532V42.5061L18.6145 37.1299Z" fill="#241E3B"/>
<path d="M37.2263 4.88818V15.638L27.9191 21.0115V10.2617L37.2263 4.88818Z" fill="#241E3B"/>
<path d="M37.2263 47.8767V58.6265L27.9191 64.0001V53.2529L37.2263 47.8767Z" fill="#241E3B"/>
<path d="M30.9 1.23379C29.0555 0.166535 26.7827 0.166535 24.9409 1.23379L18.6145 4.88803L9.30727 10.2616L2.98088 13.9158C1.13646 14.9804 0 16.9473 0 19.0765V44.4352C0 46.5644 1.13646 48.5313 2.98088 49.5986L9.30727 53.2527V21.0114L18.6145 15.6378L27.9218 10.2643L37.229 4.89069L30.9026 1.23645H30.9V1.23379Z" fill="#F2F1F9"/>
<path d="M46.5337 10.2617L37.2264 15.6379L27.9191 21.0115L18.6145 26.3851V58.6264L27.9191 63.9999V31.7586L37.2264 26.3851L46.5337 21.0115L55.8409 15.6379L46.5337 10.2617Z" fill="#F2F1F9"/>
<path d="M55.8409 26.3826V37.1297L46.5337 42.5059V53.2531L37.2264 58.6266V37.1324L46.5337 31.7588L55.8409 26.3853V26.3826Z" fill="#F2F1F9"/>
<path d="M55.8408 26.3824V15.6379H55.8381L46.5309 21.0115V31.7586L46.5336 31.756L55.8408 26.3824Z" fill="#241E3B"/>
<path d="M55.8409 43.8528V37.1299L46.5336 42.5061V53.2506L52.3517 49.8918C54.5102 48.6461 55.8409 46.3467 55.8409 43.8528Z" fill="#241E3B"/>
</g>
<path d="M104.79 21.8665C103.218 20.2044 101.344 18.9277 99.1747 18.0457C97.0021 17.1607 94.5752 16.7197 91.889 16.7197H77V53.888H91.889C94.5752 53.888 97.009 53.447 99.1994 52.562C101.39 51.6769 103.26 50.4095 104.814 48.7628C106.368 47.1161 107.562 45.1518 108.389 42.8698C109.224 40.5848 109.636 38.0622 109.636 35.3023C109.636 32.5424 109.218 30.026 108.389 27.7626C107.562 25.4991 106.359 23.5317 104.787 21.8696L104.79 21.8665ZM101.91 40.3812C101.415 41.886 100.695 43.1689 99.7378 44.2297C98.7837 45.2906 97.6237 46.1078 96.2667 46.672C94.9038 47.2364 93.3598 47.5231 91.6306 47.5231H83.8952V23.1H91.6306C93.3598 23.1 94.8979 23.3837 96.243 23.951C97.5871 24.5185 98.7441 25.3326 99.7131 26.3934C100.682 27.4542 101.417 28.737 101.913 30.2419C102.402 31.7468 102.655 33.4367 102.655 35.3146C102.655 37.1926 102.408 38.8825 101.913 40.3873L101.91 40.3812Z" fill="#F8F8FC"/>
<path d="M133.736 30.2992C133.182 29.491 132.518 28.7596 131.731 28.1142C130.827 27.3737 129.779 26.799 128.586 26.3934C127.392 25.9878 126.073 25.7849 124.628 25.7849C122.132 25.7849 119.89 26.4056 117.903 27.6379C115.913 28.8764 114.342 30.585 113.184 32.7729C112.025 34.964 111.449 37.4471 111.449 40.2373C111.449 43.0276 112.025 45.5137 113.184 47.7017C114.342 49.8897 115.875 51.6168 117.793 52.8889C119.707 54.1581 121.842 54.7943 124.19 54.7943H124.194C125.566 54.7912 126.86 54.5761 128.073 54.1551C129.285 53.734 130.39 53.1778 131.381 52.4895C132.285 51.8625 133.047 51.1435 133.682 50.3445V54.2596H140.458V26.3687H133.733V30.3023L133.736 30.2992ZM130.16 47.9138C128.967 48.6543 127.593 49.0262 126.039 49.0262C124.483 49.0262 123.117 48.6543 121.946 47.9138C120.768 47.1732 119.858 46.1406 119.207 44.8162C118.555 43.4916 118.23 41.9305 118.23 40.2373C118.23 38.5441 118.555 37.0444 119.207 35.7385C119.858 34.4355 120.774 33.4091 121.946 32.6684C123.12 31.9279 124.486 31.556 126.039 31.556C127.59 31.556 128.967 31.9279 130.16 32.6684C131.35 33.4091 132.285 34.4324 132.949 35.7385C133.62 37.0444 133.954 38.5041 133.954 40.2373C133.954 41.9706 133.617 43.4947 132.949 44.8162C132.282 46.1376 131.353 47.1732 130.16 47.9138Z" fill="#F8F8FC"/>
<path d="M154.308 18.5327H147.787V25.6975H142.271V31.7972H147.787V53.8879H154.308V31.7972H160.402V25.6975H154.308V18.5327Z" fill="#F8F8FC"/>
<path d="M182.899 26.3657V30.2991C182.363 29.491 181.719 28.7596 180.957 28.1142C180.082 27.3736 179.065 26.799 177.909 26.3934C176.754 25.9877 175.476 25.7849 174.076 25.7849C171.657 25.7849 169.485 26.4056 167.561 27.6379C165.633 28.8764 164.112 30.585 162.989 32.773C161.867 34.9641 161.308 37.447 161.308 40.2374C161.308 43.0277 161.867 45.5138 162.989 47.7017C164.112 49.8898 165.597 51.6168 167.454 52.889C169.312 54.1582 171.377 54.7943 173.652 54.7943C174.982 54.7912 176.235 54.5761 177.41 54.1552C178.583 53.7341 179.654 53.1779 180.615 52.4896C181.49 51.8626 182.228 51.1435 182.844 50.3446V54.2596H189.411V26.3687H182.896L182.899 26.3657ZM179.435 47.9107C178.278 48.6513 176.949 49.0231 175.442 49.0231C173.936 49.0231 172.612 48.6513 171.474 47.9107C170.333 47.1701 169.452 46.1375 168.821 44.8131C168.189 43.4886 167.872 41.9275 167.872 40.2343C167.872 38.541 168.189 37.0414 168.821 35.7353C169.452 34.4324 170.337 33.406 171.474 32.6654C172.612 31.9248 173.936 31.553 175.442 31.553C176.949 31.553 178.278 31.9248 179.435 32.6654C180.591 33.406 181.493 34.4294 182.14 35.7353C182.789 37.0414 183.113 38.5011 183.113 40.2343C183.113 41.9674 182.787 43.4917 182.14 44.8131C181.493 46.1345 180.591 47.1701 179.435 47.9107Z" fill="#F8F8FC"/>
<path d="M215.561 15.813H208.449V52.9812H215.561V37.7422H231.478V31.4775H215.561V22.1854H233.832V15.8161H215.561V15.813Z" fill="#F8F8FC"/>
<path d="M258.364 28.8149C257.196 27.5968 255.809 26.6364 254.215 25.9339C252.618 25.2313 250.899 24.8784 249.052 24.8784C246.958 24.8784 245.036 25.2374 243.277 25.9614C241.523 26.6856 240.016 27.7073 238.758 29.0266C237.497 30.3459 236.512 31.9045 235.802 33.7024C235.094 35.5004 234.738 37.4885 234.738 39.673C234.738 42.419 235.365 44.8613 236.627 46.9906C237.887 49.1229 239.642 50.8042 241.897 52.0377C244.146 53.2742 246.744 53.8878 249.689 53.8878H249.692C251.005 53.8878 252.336 53.7129 253.683 53.36C255.028 53.0072 256.316 52.5225 257.539 51.9057C258.765 51.2891 259.853 50.5404 260.814 49.6598L257.567 45.1681C256.291 46.2635 255.101 47.0182 254.005 47.4416C252.905 47.865 251.7 48.0767 250.386 48.0767C248.502 48.0767 246.865 47.7178 245.462 46.9936C244.06 46.2696 242.978 45.2417 242.215 43.9009C241.699 42.9928 241.359 42.0079 241.195 40.891H261.876L261.932 38.6176C261.967 36.6448 261.672 34.8193 261.051 33.1471C260.427 31.4719 259.535 30.0298 258.364 28.8118V28.8149ZM244.665 31.6467C245.851 30.981 247.315 30.6435 249.052 30.6435C250.189 30.6435 251.227 30.8797 252.166 31.3553C253.106 31.8309 253.875 32.4844 254.48 33.3097C255.083 34.1412 255.435 35.1015 255.543 36.1907V36.4546H241.337C241.486 35.7489 241.699 35.1015 241.977 34.5277C242.583 33.2759 243.475 32.3156 244.665 31.6467Z" fill="#F8F8FC"/>
<path d="M273.97 18.5327H267.45V25.5114H261.935V31.4551H267.45V52.9813H273.97V31.4551H280.065V25.5114H273.97V18.5327Z" fill="#F8F8FC"/>
<path d="M290.69 31.788C291.948 31.0289 293.389 30.6508 294.998 30.6508C295.947 30.6508 296.898 30.826 297.85 31.1794C298.803 31.5329 299.698 32.0125 300.54 32.6087C301.381 33.2111 302.075 33.8812 302.624 34.622L306.355 30.2789C305.182 28.5853 303.538 27.2636 301.416 26.3078C299.297 25.3549 297.047 24.8784 294.339 24.8784C291.63 24.8784 289.195 25.5116 287.038 26.7841C284.877 28.0567 283.176 29.784 281.933 31.9725C280.69 34.1609 280.065 36.6291 280.065 39.3831C280.065 42.1371 280.69 44.6052 281.933 46.7937C283.176 48.9821 284.88 50.7096 287.038 51.982C289.195 53.2515 291.626 53.8877 294.339 53.8877H294.342C296.754 53.8908 299.048 53.4051 301.228 52.4339C303.402 51.4657 305.113 50.1993 306.355 48.6472L302.624 44.2548C301.929 45.097 301.18 45.8071 300.377 46.3696C299.574 46.9321 298.72 47.3654 297.824 47.6666C296.926 47.9648 296.002 48.1154 295.052 48.1154C293.478 48.1154 292.054 47.7281 290.773 46.9505C289.488 46.1759 288.475 45.1339 287.726 43.8276C286.975 42.5244 286.601 41.0429 286.601 39.3831C286.601 37.7233 286.967 36.2326 287.697 34.9109C288.427 33.5892 289.425 32.5473 290.69 31.788Z" fill="#F8F8FC"/>
<path d="M329.158 25.9048C327.702 25.0575 325.898 24.6385 323.742 24.6385C322.234 24.6385 320.756 24.9566 319.324 25.5898C317.887 26.223 316.645 27.0549 315.603 28.0918C315.28 28.4099 314.999 28.7403 314.743 29.0798V14H308.168V52.9783H314.795V36.2283C314.795 35.384 314.964 34.6101 315.309 33.9096C315.647 33.2092 316.116 32.5852 316.708 32.0408C317.302 31.4962 318.003 31.0711 318.81 30.7744C319.618 30.4777 320.51 30.3278 321.479 30.3278C322.662 30.2941 323.669 30.496 324.495 30.9335C325.322 31.377 325.932 32.0591 326.329 32.989C326.723 33.9219 326.92 35.0904 326.92 36.4943V52.9813H333.551V36.0172C333.551 33.4876 333.185 31.3831 332.446 29.6977C331.708 28.0123 330.613 26.749 329.158 25.9079V25.9048Z" fill="#F8F8FC"/>
<path d="M359.897 28.8149C358.726 27.5968 357.345 26.6364 355.75 25.9339C354.153 25.2313 352.432 24.8784 350.587 24.8784C348.49 24.8784 346.568 25.2374 344.813 25.9614C343.056 26.6856 341.551 27.7073 340.29 29.0266C339.03 30.3459 338.044 31.9045 337.337 33.7024C336.627 35.5004 336.271 37.4885 336.271 39.673C336.271 42.419 336.901 44.8613 338.158 46.9906C339.417 49.1229 341.171 50.8042 343.427 52.0377C345.679 53.2742 348.28 53.8878 351.221 53.8878H351.227C352.54 53.8878 353.869 53.7129 355.216 53.36C356.563 53.0072 357.848 52.5225 359.075 51.9057C360.295 51.2891 361.386 50.5404 362.344 49.6598L359.1 45.1681C357.827 46.2635 356.634 47.0182 355.537 47.4416C354.441 47.865 353.232 48.0767 351.919 48.0767C350.041 48.0767 348.401 47.7178 346.998 46.9936C345.595 46.2696 344.511 45.2417 343.751 43.9009C343.232 42.9928 342.895 42.0079 342.728 40.891H363.409L363.465 38.6176C363.498 36.6448 363.205 34.8193 362.587 33.1471C361.963 31.4719 361.068 30.0298 359.897 28.8118V28.8149ZM346.195 31.6467C347.387 30.981 348.848 30.6435 350.587 30.6435C351.724 30.6435 352.76 30.8797 353.699 31.3553C354.638 31.8309 355.411 32.4844 356.016 33.3097C356.615 34.1412 356.971 35.1015 357.079 36.1907V36.4546H342.87C343.021 35.7489 343.232 35.1015 343.51 34.5277C344.112 33.2759 345.005 32.3156 346.195 31.6467Z" fill="#F8F8FC"/>
<path d="M383.861 25.0331C383.308 24.9299 382.731 24.8784 382.121 24.8784C380.734 24.8784 379.404 25.203 378.137 25.8461C376.873 26.4923 375.761 27.372 374.795 28.4853C374.339 29.0101 373.951 29.5713 373.624 30.1598L373.565 25.4548H367.093V52.9812H373.724V38.3019C373.724 37.3311 373.892 36.4484 374.23 35.6657C374.568 34.88 375.041 34.1945 375.649 33.5999C376.255 33.0083 376.96 32.5472 377.761 32.2166C378.563 31.8859 379.414 31.7221 380.302 31.7221C380.873 31.7221 381.445 31.7919 382.013 31.9315C382.585 32.0709 383.062 32.2438 383.457 32.4532L385.224 25.4002C384.868 25.2607 384.414 25.1393 383.861 25.0331Z" fill="#F8F8FC"/>
</svg>
