<svg width="389" height="63" viewBox="0 0 389 63" fill="none" xmlns="http://www.w3.org/2000/svg">
<path d="M104.783 18.8231C103.195 17.1475 101.302 15.8606 99.1096 14.9715C96.9146 14.0793 94.4626 13.6348 91.7486 13.6348H76.7057V51.1031H91.7486C94.4626 51.1031 96.9216 50.6586 99.1346 49.7664C101.348 48.8742 103.238 47.5966 104.808 45.9366C106.378 44.2766 107.584 42.2964 108.42 39.996C109.263 37.6925 109.679 35.1496 109.679 32.3674C109.679 29.5852 109.257 27.0485 108.42 24.7668C107.584 22.4851 106.369 20.5018 104.78 18.8262L104.783 18.8231ZM101.874 37.4873C101.373 39.0043 100.646 40.2975 99.6786 41.3669C98.7146 42.4363 97.5426 43.26 96.1716 43.8289C94.7946 44.3978 93.2346 44.6869 91.4876 44.6869H83.6722V20.0665H91.4876C93.2346 20.0665 94.7886 20.3525 96.1476 20.9245C97.5056 21.4965 98.6746 22.3172 99.6536 23.3866C100.633 24.4559 101.376 25.7491 101.877 27.2661C102.371 28.7831 102.626 30.4867 102.626 32.3798C102.626 34.273 102.377 35.9765 101.877 37.4935L101.874 37.4873Z" fill="#170F2A"/>
<path d="M134.172 26.8652C133.625 26.0476 132.969 25.3077 132.192 24.6549C131.3 23.9057 130.265 23.3244 129.087 22.9141C127.908 22.5038 126.606 22.2986 125.179 22.2986C122.714 22.2986 120.501 22.9265 118.539 24.1731C116.574 25.4259 115.023 27.1543 113.879 29.3676C112.735 31.5841 112.166 34.0958 112.166 36.9185C112.166 39.7411 112.735 42.256 113.879 44.4693C115.023 46.6827 116.537 48.4297 118.43 49.7167C120.32 51.0006 122.428 51.6441 124.747 51.6441H124.75C126.105 51.641 127.383 51.4234 128.58 50.9975C129.777 50.5716 130.868 50.0089 131.847 49.3126C132.739 48.6784 133.492 47.951 134.119 47.1428V51.1032H140.809V22.8892H134.169V26.8683L134.172 26.8652ZM130.641 44.6838C129.463 45.433 128.107 45.8092 126.572 45.8092C125.036 45.8092 123.687 45.433 122.531 44.6838C121.368 43.9347 120.469 42.8902 119.826 41.5503C119.183 40.2105 118.862 38.6313 118.862 36.9185C118.862 35.2056 119.183 33.6886 119.826 32.3674C120.469 31.0494 121.374 30.0111 122.531 29.2619C123.69 28.5127 125.039 28.1366 126.572 28.1366C128.104 28.1366 129.463 28.5127 130.641 29.2619C131.816 30.0111 132.739 31.0463 133.395 32.3674C134.057 33.6886 134.387 35.1652 134.387 36.9185C134.387 38.6717 134.054 40.2136 133.395 41.5503C132.736 42.8871 131.819 43.9347 130.641 44.6838Z" fill="#170F2A"/>
<path d="M155.227 15.7239H148.64V22.8955H143.069V29.0008H148.64V51.1125H155.227V29.0008H161.382V22.8955H155.227V15.7239Z" fill="#170F2A"/>
<path d="M183.758 22.8893V26.8683C183.211 26.0508 182.555 25.3109 181.778 24.6581C180.886 23.9089 179.85 23.3276 178.672 22.9173C177.494 22.5069 176.192 22.3018 174.765 22.3018C172.3 22.3018 170.086 22.9297 168.125 24.1763C166.16 25.429 164.609 27.1574 163.465 29.3708C162.321 31.5872 161.752 34.099 161.752 36.9217C161.752 39.7443 162.321 42.2592 163.465 44.4725C164.609 46.6859 166.123 48.4329 168.016 49.7199C169.909 51.0037 172.014 51.6472 174.333 51.6472C175.688 51.6441 176.966 51.4265 178.163 51.0006C179.359 50.5748 180.45 50.0121 181.43 49.3158C182.322 48.6816 183.074 47.9542 183.702 47.1459V51.1063H190.395V22.8924H183.755L183.758 22.8893ZM180.227 44.6839C179.048 45.4331 177.693 45.8092 176.157 45.8092C174.622 45.8092 173.273 45.4331 172.113 44.6839C170.95 43.9347 170.052 42.8902 169.409 41.5504C168.765 40.2106 168.442 38.6314 168.442 36.9185C168.442 35.2057 168.765 33.6887 169.409 32.3675C170.052 31.0494 170.954 30.0112 172.113 29.262C173.273 28.5128 174.622 28.1367 176.157 28.1367C177.693 28.1367 179.048 28.5128 180.227 29.262C181.405 30.0112 182.325 31.0463 182.984 32.3675C183.646 33.6887 183.976 35.1653 183.976 36.9185C183.976 38.6718 183.643 40.2137 182.984 41.5504C182.325 42.8871 181.405 43.9347 180.227 44.6839Z" fill="#170F2A"/>
<path d="M217.07 12.9573H210.11V50.4349H217.07V35.069H232.648V28.7522H217.07V19.3828H234.951V12.9604H217.07V12.9573Z" fill="#170F2A"/>
<path d="M259.73 25.569C258.555 24.3348 257.159 23.3618 255.555 22.65C253.948 21.9381 252.219 21.5806 250.36 21.5806C248.253 21.5806 246.319 21.9443 244.55 22.6779C242.785 23.4116 241.268 24.4467 240.003 25.7835C238.734 27.1202 237.743 28.6994 237.028 30.521C236.316 32.3427 235.958 34.3571 235.958 36.5704C235.958 39.3526 236.589 41.8271 237.858 43.9845C239.126 46.145 240.892 47.8485 243.161 49.0982C245.424 50.351 248.038 50.9727 251.001 50.9727H251.004C252.325 50.9727 253.665 50.7955 255.02 50.438C256.373 50.0805 257.669 49.5894 258.9 48.9645C260.134 48.3397 261.228 47.5812 262.195 46.689L258.928 42.138C257.644 43.2477 256.447 44.0125 255.344 44.4415C254.237 44.8705 253.025 45.0849 251.703 45.0849C249.807 45.0849 248.16 44.7212 246.748 43.9876C245.337 43.254 244.249 42.2126 243.481 40.8541C242.962 39.9339 242.62 38.9361 242.455 37.8045H263.264L263.32 35.501C263.355 33.5022 263.059 31.6526 262.434 29.9584C261.806 28.261 260.908 26.8 259.73 25.5659V25.569ZM245.946 28.4382C247.14 27.7637 248.613 27.4217 250.36 27.4217C251.504 27.4217 252.549 27.6611 253.494 28.1429C254.439 28.6247 255.213 29.2869 255.822 30.1231C256.429 30.9655 256.783 31.9385 256.892 33.0421V33.3095H242.598C242.747 32.5945 242.962 31.9385 243.242 31.3572C243.851 30.0889 244.749 29.1159 245.946 28.4382Z" fill="#170F2A"/>
<path d="M275.997 15.0525H269.413V22.221H263.843V28.3263H269.413V50.438H275.997V28.3263H282.152V22.221H275.997V15.0525Z" fill="#170F2A"/>
<path d="M292.877 28.6215C294.105 27.8537 295.51 27.4713 297.08 27.4713C298.006 27.4713 298.933 27.6485 299.862 28.006C300.792 28.3635 301.665 28.8485 302.486 29.4515C303.307 30.0608 303.984 30.7385 304.519 31.4877L308.159 27.0952C307.015 25.3823 305.411 24.0456 303.341 23.0788C301.274 22.1152 299.079 21.6333 296.437 21.6333C293.794 21.6333 291.419 22.2737 289.315 23.5607C287.207 24.8476 285.547 26.5947 284.335 28.808C283.122 31.0214 282.513 33.5176 282.513 36.303C282.513 39.0883 283.122 41.5845 284.335 43.7979C285.547 46.0112 287.21 47.7583 289.315 49.0452C291.419 50.3291 293.791 50.9726 296.437 50.9726H296.44C298.793 50.9757 301.031 50.4845 303.157 49.5022C305.278 48.523 306.947 47.2422 308.159 45.6724L304.519 41.2301C303.841 42.0819 303.111 42.8 302.327 43.3689C301.544 43.9378 300.711 44.3761 299.837 44.6807C298.961 44.9823 298.059 45.1346 297.133 45.1346C295.597 45.1346 294.208 44.7429 292.958 43.9564C291.705 43.173 290.717 42.1192 289.986 40.798C289.253 39.48 288.889 37.9816 288.889 36.303C288.889 34.6243 289.246 33.1166 289.958 31.7799C290.67 30.4432 291.643 29.3894 292.877 28.6215Z" fill="#170F2A"/>
<path d="M331.645 22.9203C330.199 22.0592 328.406 21.6333 326.264 21.6333C324.766 21.6333 323.298 21.9566 321.875 22.6001C320.448 23.2435 319.214 24.0891 318.178 25.1429C317.858 25.4662 317.578 25.802 317.324 26.147V10.8215H310.792V50.4347H317.376V33.4119C317.376 32.5539 317.544 31.7674 317.886 31.0555C318.222 30.3437 318.688 29.7095 319.276 29.1562C319.866 28.6028 320.563 28.1707 321.365 27.8692C322.167 27.5677 323.053 27.4153 324.016 27.4153C325.191 27.3811 326.192 27.5863 327.013 28.0308C327.834 28.4816 328.44 29.1748 328.835 30.1198C329.226 31.068 329.422 32.2555 329.422 33.6823V50.4379H336.01V33.1974C336.01 30.6265 335.646 28.4878 334.912 26.775C334.179 25.0621 333.091 23.7782 331.645 22.9234V22.9203Z" fill="#170F2A"/>
<path d="M362.946 25.569C361.768 24.3348 360.378 23.3618 358.774 22.65C357.167 21.9381 355.435 21.5806 353.579 21.5806C351.469 21.5806 349.535 21.9443 347.769 22.6779C346.001 23.4116 344.487 24.4467 343.218 25.7835C341.95 27.1202 340.958 28.6994 340.247 30.521C339.532 32.3427 339.174 34.3571 339.174 36.5704C339.174 39.3526 339.808 41.8271 341.073 43.9845C342.339 46.145 344.104 47.8485 346.374 49.0982C348.64 50.351 351.257 50.9727 354.217 50.9727H354.223C355.544 50.9727 356.881 50.7955 358.236 50.438C359.592 50.0805 360.885 49.5894 362.119 48.9645C363.347 48.3397 364.444 47.5812 365.408 46.689L362.144 42.138C360.863 43.2477 359.663 44.0125 358.559 44.4415C357.456 44.8705 356.24 45.0849 354.919 45.0849C353.029 45.0849 351.379 44.7212 349.967 43.9876C348.556 43.254 347.465 42.2126 346.7 40.8541C346.178 39.9339 345.839 38.9361 345.671 37.8045H366.48L366.536 35.501C366.57 33.5022 366.275 31.6526 365.653 29.9584C365.025 28.261 364.124 26.8 362.946 25.5659V25.569ZM349.159 28.4382C350.359 27.7637 351.829 27.4217 353.579 27.4217C354.723 27.4217 355.765 27.6611 356.71 28.1429C357.655 28.6247 358.432 29.2869 359.041 30.1231C359.644 30.9655 360.002 31.9385 360.111 33.0421V33.3095H345.814C345.966 32.5945 346.178 31.9385 346.458 31.3572C347.064 30.0889 347.962 29.1159 349.159 28.4382Z" fill="#170F2A"/>
<path d="M386.857 21.7889C386.304 21.6832 385.726 21.6304 385.116 21.6304C383.727 21.6304 382.396 21.963 381.128 22.622C379.863 23.2842 378.75 24.1857 377.783 25.3265C377.326 25.8643 376.938 26.4394 376.611 27.0425L376.552 22.221H370.074V50.4287H376.711V35.3861C376.711 34.3913 376.879 33.4867 377.217 32.6847C377.556 31.8795 378.029 31.177 378.638 30.5677C379.244 29.9615 379.95 29.489 380.752 29.1502C381.554 28.8113 382.406 28.6434 383.295 28.6434C383.867 28.6434 384.439 28.7149 385.008 28.8579C385.58 29.0009 386.058 29.1781 386.453 29.3926L388.222 22.1651C387.865 22.0221 387.411 21.8977 386.857 21.7889Z" fill="#170F2A"/>
<mask id="mask0_75_147" style="mask-type:luminance" maskUnits="userSpaceOnUse" x="0" y="0" width="55" height="63">
<path d="M54.7057 0H0V62.6277H54.7057V0Z" fill="white"/>
</mask>
<g mask="url(#mask0_75_147)">
<path d="M18.2362 36.1543V46.7434L9.11815 52.0407V41.4515L18.2362 36.1543Z" fill="#7A6BEB"/>
<path d="M36.4696 4.38696V14.9788L27.3515 20.2734V9.68152L36.4696 4.38696Z" fill="#7A6BEB"/>
<path d="M36.4696 46.7439V57.3356L27.3515 62.6303V52.0411L36.4696 46.7439Z" fill="#7A6BEB"/>
<path d="M30.2719 0.786607C28.4649 -0.264969 26.2382 -0.264969 24.4339 0.786607L18.2361 4.38713L9.11804 9.68174L2.92028 13.2822C1.11336 14.3312 0 16.2692 0 18.3671V43.3531C0 45.451 1.11336 47.389 2.92028 48.4405L9.11804 52.0411V20.2735L18.2361 14.9789L27.3542 9.68436L36.4723 4.38976L30.2745 0.789229H30.2719V0.786607Z" fill="#241E3B"/>
<path d="M45.5876 9.6814L36.4696 14.9786L27.3515 20.2731L18.2361 25.5677V57.3353L27.3515 62.6298V30.8624L36.4696 25.5677L45.5876 20.2731L54.7057 14.9786L45.5876 9.6814Z" fill="#241E3B"/>
<path d="M54.7057 25.5654V36.1546L45.5877 41.4518V52.041L36.4696 57.3356V36.1573L45.5877 30.8627L54.7057 25.568V25.5654Z" fill="#241E3B"/>
<path d="M54.7058 25.565V14.9785H54.7032L45.5851 20.2731V30.8623L45.5877 30.8596L54.7058 25.565Z" fill="#7A6BEB"/>
<path d="M54.7056 42.7784V36.1543L45.5876 41.4515V52.038L51.2873 48.7286C53.4019 47.5013 54.7056 45.2356 54.7056 42.7784Z" fill="#7A6BEB"/>
</g>
</svg>
