<svg width="400" height="75" viewBox="0 0 400 75" fill="none" xmlns="http://www.w3.org/2000/svg">
<g clip-path="url(#clip0_3092_2496)">
<path d="M116.561 22.7851C114.973 21.1096 113.08 19.8226 110.888 18.9335C108.693 18.0413 106.241 17.5968 103.527 17.5968H88.4841V55.0651H103.527C106.241 55.0651 108.7 54.6206 110.913 53.7284C113.126 52.8362 115.016 51.5586 116.586 49.8986C118.156 48.2386 119.362 46.2584 120.198 43.958C121.041 41.6545 121.457 39.1116 121.457 36.3294C121.457 33.5472 121.035 31.0105 120.198 28.7288C119.362 26.4471 118.147 24.4638 116.558 22.7882L116.561 22.7851ZM113.652 41.4493C113.151 42.9663 112.424 44.2595 111.457 45.3289C110.493 46.3983 109.321 47.2221 107.95 47.7909C106.573 48.3598 105.013 48.6489 103.266 48.6489H95.4506V24.0286H103.266C105.013 24.0286 106.567 24.3146 107.926 24.8865C109.284 25.4585 110.453 26.2792 111.432 27.3486C112.411 28.4179 113.154 29.7111 113.655 31.2281C114.149 32.7452 114.404 34.4487 114.404 36.3418C114.404 38.235 114.155 39.9385 113.655 41.4555L113.652 41.4493Z" fill="#F8F8FC"/>
<path d="M145.95 30.8271C145.403 30.0095 144.747 29.2697 143.97 28.6168C143.078 27.8677 142.043 27.2863 140.865 26.876C139.686 26.4657 138.384 26.2605 136.957 26.2605C134.492 26.2605 132.279 26.8884 130.317 28.135C128.352 29.3878 126.801 31.1162 125.657 33.3295C124.513 35.546 123.944 38.0578 123.944 40.8804C123.944 43.703 124.513 46.2179 125.657 48.4313C126.801 50.6446 128.315 52.3917 130.208 53.6786C132.098 54.9625 134.206 55.606 136.525 55.606H136.528C137.883 55.6029 139.161 55.3853 140.358 54.9594C141.555 54.5335 142.646 53.9708 143.625 53.2745C144.517 52.6403 145.27 51.9129 145.897 51.1047V55.0651H152.587V26.8511H145.947V30.8302L145.95 30.8271ZM142.419 48.6458C141.241 49.3949 139.885 49.7711 138.35 49.7711C136.814 49.7711 135.465 49.3949 134.309 48.6458C133.146 47.8966 132.247 46.8521 131.604 45.5123C130.961 44.1724 130.64 42.5932 130.64 40.8804C130.64 39.1675 130.961 37.6505 131.604 36.3294C132.247 35.0113 133.152 33.973 134.309 33.2238C135.468 32.4747 136.817 32.0985 138.35 32.0985C139.882 32.0985 141.241 32.4747 142.419 33.2238C143.594 33.973 144.517 35.0082 145.173 36.3294C145.835 37.6505 146.165 39.1271 146.165 40.8804C146.165 42.6337 145.832 44.1755 145.173 45.5123C144.514 46.849 143.597 47.8966 142.419 48.6458Z" fill="#F8F8FC"/>
<path d="M167.005 19.6858H160.418V26.8574H154.847V32.9628H160.418V55.0744H167.005V32.9628H173.16V26.8574H167.005V19.6858Z" fill="#F8F8FC"/>
<path d="M195.536 26.8512V30.8302C194.989 30.0127 194.333 29.2728 193.556 28.62C192.664 27.8708 191.628 27.2895 190.45 26.8792C189.272 26.4688 187.97 26.2637 186.543 26.2637C184.078 26.2637 181.864 26.8916 179.903 28.1382C177.938 29.391 176.387 31.1194 175.243 33.3327C174.099 35.5492 173.53 38.0609 173.53 40.8836C173.53 43.7062 174.099 46.2211 175.243 48.4344C176.387 50.6478 177.901 52.3948 179.794 53.6818C181.687 54.9657 183.792 55.6091 186.111 55.6091C187.466 55.606 188.744 55.3884 189.941 54.9626C191.137 54.5367 192.228 53.974 193.208 53.2777C194.1 52.6435 194.852 51.9161 195.48 51.1079V55.0682H202.173V26.8543H195.533L195.536 26.8512ZM192.005 48.6458C190.826 49.395 189.471 49.7711 187.935 49.7711C186.4 49.7711 185.051 49.395 183.891 48.6458C182.728 47.8966 181.83 46.8521 181.187 45.5123C180.543 44.1725 180.22 42.5933 180.22 40.8805C180.22 39.1676 180.543 37.6506 181.187 36.3294C181.83 35.0114 182.732 33.9731 183.891 33.2239C185.051 32.4747 186.4 32.0986 187.935 32.0986C189.471 32.0986 190.826 32.4747 192.005 33.2239C193.183 33.9731 194.103 35.0083 194.762 36.3294C195.424 37.6506 195.754 39.1272 195.754 40.8805C195.754 42.6337 195.421 44.1756 194.762 45.5123C194.103 46.849 193.183 47.8966 192.005 48.6458Z" fill="#F8F8FC"/>
<path d="M228.848 16.9192H221.888V54.3968H228.848V39.0309H244.426V32.7141H228.848V23.3447H246.729V16.9223H228.848V16.9192Z" fill="#F8F8FC"/>
<path d="M271.508 29.531C270.333 28.2968 268.937 27.3238 267.333 26.612C265.726 25.9001 263.997 25.5426 262.138 25.5426C260.031 25.5426 258.097 25.9063 256.328 26.6399C254.563 27.3736 253.046 28.4088 251.781 29.7455C250.512 31.0822 249.521 32.6614 248.806 34.483C248.094 36.3047 247.736 38.3191 247.736 40.5324C247.736 43.3146 248.367 45.7891 249.636 47.9465C250.904 50.107 252.67 51.8105 254.939 53.0602C257.202 54.313 259.816 54.9347 262.779 54.9347H262.782C264.103 54.9347 265.443 54.7575 266.798 54.4C268.151 54.0425 269.447 53.5514 270.678 52.9265C271.912 52.3017 273.006 51.5432 273.973 50.651L270.706 46.1C269.422 47.2098 268.225 47.9745 267.122 48.4035C266.015 48.8325 264.803 49.047 263.481 49.047C261.585 49.047 259.938 48.6833 258.526 47.9496C257.115 47.216 256.027 46.1746 255.259 44.8161C254.74 43.896 254.398 42.8981 254.233 41.7665H275.042L275.098 39.4631C275.133 37.4642 274.837 35.6146 274.212 33.9204C273.584 32.2231 272.686 30.762 271.508 29.5279V29.531ZM257.724 32.4002C258.918 31.7257 260.391 31.3837 262.138 31.3837C263.282 31.3837 264.327 31.6231 265.272 32.1049C266.217 32.5868 266.991 33.2489 267.6 34.0851C268.207 34.9276 268.561 35.9006 268.67 37.0041V37.2715H254.376C254.525 36.5565 254.74 35.9006 255.02 35.3192C255.629 34.0509 256.527 33.0779 257.724 32.4002Z" fill="#F8F8FC"/>
<path d="M287.775 19.0144H281.191V26.1829H275.621V32.2883H281.191V54.4H287.775V32.2883H293.93V26.1829H287.775V19.0144Z" fill="#F8F8FC"/>
<path d="M304.655 32.5835C305.883 31.8157 307.288 31.4333 308.858 31.4333C309.784 31.4333 310.711 31.6105 311.64 31.968C312.57 32.3255 313.443 32.8105 314.264 33.4135C315.085 34.0228 315.762 34.7005 316.297 35.4497L319.937 31.0572C318.793 29.3443 317.189 28.0076 315.119 27.0409C313.052 26.0772 310.857 25.5953 308.215 25.5953C305.572 25.5953 303.197 26.2357 301.093 27.5227C298.985 28.8097 297.325 30.5567 296.113 32.7701C294.9 34.9834 294.291 37.4796 294.291 40.265C294.291 43.0503 294.9 45.5465 296.113 47.7599C297.325 49.9732 298.988 51.7203 301.093 53.0072C303.197 54.2911 305.569 54.9346 308.215 54.9346H308.218C310.571 54.9377 312.809 54.4465 314.935 53.4642C317.056 52.485 318.725 51.2042 319.937 49.6344L316.297 45.1921C315.619 46.0439 314.889 46.762 314.105 47.3309C313.322 47.8998 312.489 48.3381 311.615 48.6427C310.739 48.9443 309.837 49.0966 308.911 49.0966C307.375 49.0966 305.986 48.7049 304.736 47.9184C303.483 47.135 302.495 46.0812 301.764 44.76C301.031 43.442 300.667 41.9436 300.667 40.265C300.667 38.5863 301.024 37.0786 301.736 35.7419C302.448 34.4052 303.421 33.3514 304.655 32.5835Z" fill="#F8F8FC"/>
<path d="M343.423 26.8824C341.977 26.0213 340.184 25.5954 338.042 25.5954C336.544 25.5954 335.076 25.9187 333.653 26.5622C332.226 27.2057 330.992 28.0512 329.956 29.105C329.636 29.4283 329.356 29.7641 329.102 30.1091V14.7836H322.57V54.3969H329.154V37.374C329.154 36.516 329.322 35.7295 329.664 35.0176C330 34.3058 330.466 33.6716 331.054 33.1183C331.644 32.5649 332.341 32.1328 333.143 31.8313C333.945 31.5298 334.831 31.3774 335.794 31.3774C336.969 31.3432 337.97 31.5484 338.791 31.993C339.612 32.4437 340.218 33.1369 340.613 34.082C341.004 35.0301 341.2 36.2176 341.2 37.6444V54.4H347.788V37.1595C347.788 34.5887 347.424 32.4499 346.69 30.7371C345.957 29.0242 344.869 27.7403 343.423 26.8855V26.8824Z" fill="#F8F8FC"/>
<path d="M374.724 29.531C373.546 28.2968 372.156 27.3238 370.552 26.612C368.945 25.9001 367.213 25.5426 365.357 25.5426C363.247 25.5426 361.313 25.9063 359.547 26.6399C357.779 27.3736 356.265 28.4088 354.996 29.7455C353.728 31.0822 352.736 32.6614 352.025 34.483C351.31 36.3047 350.952 38.3191 350.952 40.5324C350.952 43.3146 351.586 45.7891 352.851 47.9465C354.117 50.107 355.882 51.8105 358.152 53.0602C360.418 54.313 363.035 54.9347 365.995 54.9347H366.001C367.322 54.9347 368.659 54.7575 370.014 54.4C371.37 54.0425 372.663 53.5514 373.897 52.9265C375.125 52.3017 376.222 51.5432 377.186 50.651L373.922 46.1C372.641 47.2098 371.441 47.9745 370.337 48.4035C369.234 48.8325 368.018 49.047 366.697 49.047C364.807 49.047 363.157 48.6833 361.745 47.9496C360.334 47.216 359.243 46.1746 358.478 44.8161C357.956 43.896 357.617 42.8981 357.449 41.7665H378.258L378.314 39.4631C378.348 37.4642 378.053 35.6146 377.431 33.9204C376.803 32.2231 375.902 30.762 374.724 29.5279V29.531ZM360.937 32.4002C362.137 31.7257 363.607 31.3837 365.357 31.3837C366.501 31.3837 367.543 31.6231 368.488 32.1049C369.433 32.5868 370.21 33.2489 370.819 34.0851C371.422 34.9276 371.78 35.9006 371.889 37.0041V37.2715H357.592C357.744 36.5565 357.956 35.9006 358.236 35.3192C358.842 34.0509 359.74 33.0779 360.937 32.4002Z" fill="#F8F8FC"/>
<path d="M381.852 54.3969V54.3938H381.849L381.852 54.3969Z" fill="#F8F8FC"/>
<path d="M398.635 25.7508C398.082 25.6451 397.504 25.5923 396.894 25.5923C395.505 25.5923 394.174 25.9249 392.906 26.5839C391.641 27.2461 390.528 28.1476 389.561 29.2884C389.104 29.8262 388.716 30.4013 388.389 31.0044L388.33 26.1829H381.852V54.3906H388.489V39.348C388.489 38.3532 388.657 37.4486 388.995 36.6466C389.334 35.8414 389.807 35.1389 390.416 34.5296C391.022 33.9234 391.728 33.4509 392.53 33.1121C393.332 32.7732 394.184 32.6054 395.073 32.6054C395.645 32.6054 396.217 32.6769 396.786 32.8199C397.358 32.9628 397.836 33.14 398.231 33.3545L400 26.127C399.643 25.984 399.189 25.8596 398.635 25.7508Z" fill="#F8F8FC"/>
<path d="M21.7417 43.3395V55.8921L10.8708 62.1716V49.6189L21.7417 43.3395Z" fill="#241E3B"/>
<path d="M43.4804 5.68152V18.2373L32.6095 24.5136V11.9578L43.4804 5.68152Z" fill="#241E3B"/>
<path d="M43.4804 55.8921V68.4479L32.6095 74.7242V62.1715L43.4804 55.8921Z" fill="#241E3B"/>
<path d="M36.0912 1.41331C33.9369 0.166753 31.2822 0.166753 29.131 1.41331L21.7418 5.68146L10.8709 11.9578L3.48167 16.2259C1.32739 17.4694 0 19.7667 0 22.2536V51.8726C0 54.3595 1.32739 56.6568 3.48167 57.9034L10.8709 62.1715V24.5136L21.7418 18.2372L32.6127 11.9609L43.4835 5.68457L36.0943 1.41642H36.0912V1.41331Z" fill="#F2F1F9"/>
<path d="M54.3514 11.9578L43.4805 18.2372L32.6096 24.5135L21.7418 30.7899V68.4478L32.6096 74.7241V37.0662L43.4805 30.7899L54.3514 24.5135L65.2222 18.2372L54.3514 11.9578Z" fill="#F2F1F9"/>
<path d="M65.2222 30.7867V43.3394L54.3514 49.6188V62.1715L43.4805 68.4478V43.3425L54.3514 37.0662L65.2222 30.7899V30.7867Z" fill="#F2F1F9"/>
<path d="M65.2221 30.7867V18.2372H65.219L54.3481 24.5135V37.0662L54.3513 37.0631L65.2221 30.7867Z" fill="#241E3B"/>
<path d="M65.2222 51.1919V43.3395L54.3513 49.6189V62.1685L61.1468 58.2454C63.6679 56.7905 65.2222 54.1047 65.2222 51.1919Z" fill="#241E3B"/>
</g>
<defs>
<clipPath id="clip0_3092_2496">
<rect width="400" height="74.2403" fill="white" transform="translate(0 0.480713)"/>
</clipPath>
</defs>
</svg>
