<svg width="400" height="75" viewBox="0 0 400 75" fill="none" xmlns="http://www.w3.org/2000/svg">
<g clip-path="url(#clip0_3092_2442)">
<path d="M116.561 22.3044C114.973 20.6288 113.08 19.3419 110.888 18.4528C108.693 17.5606 106.241 17.1161 103.527 17.1161H88.4841V54.5844H103.527C106.241 54.5844 108.7 54.1399 110.913 53.2477C113.126 52.3555 115.016 51.0779 116.586 49.4179C118.156 47.7579 119.362 45.7777 120.198 43.4773C121.041 41.1738 121.457 38.6309 121.457 35.8487C121.457 33.0665 121.035 30.5298 120.198 28.2481C119.362 25.9664 118.147 23.9831 116.558 22.3075L116.561 22.3044ZM113.652 40.9686C113.151 42.4856 112.424 43.7788 111.457 44.8482C110.493 45.9176 109.321 46.7413 107.95 47.3102C106.573 47.8791 105.013 48.1682 103.266 48.1682H95.4506V23.5478H103.266C105.013 23.5478 106.567 23.8338 107.926 24.4058C109.284 24.9778 110.453 25.7985 111.432 26.8679C112.411 27.9372 113.154 29.2304 113.655 30.7474C114.149 32.2644 114.404 33.968 114.404 35.8611C114.404 37.7543 114.155 39.4578 113.655 40.9748L113.652 40.9686Z" fill="#170F2A"/>
<path d="M145.95 30.3464C145.403 29.5288 144.747 28.7889 143.97 28.1361C143.078 27.3869 142.043 26.8056 140.865 26.3953C139.686 25.985 138.384 25.7798 136.957 25.7798C134.492 25.7798 132.279 26.4077 130.317 27.6543C128.352 28.9071 126.801 30.6355 125.657 32.8488C124.513 35.0653 123.944 37.577 123.944 40.3997C123.944 43.2223 124.513 45.7372 125.657 47.9505C126.801 50.1639 128.315 51.9109 130.208 53.1979C132.098 54.4818 134.206 55.1253 136.525 55.1253H136.528C137.883 55.1222 139.161 54.9046 140.358 54.4787C141.555 54.0528 142.646 53.4901 143.625 52.7938C144.517 52.1596 145.27 51.4322 145.897 50.624V54.5844H152.587V26.3704H145.947V30.3495L145.95 30.3464ZM142.419 48.165C141.241 48.9142 139.885 49.2904 138.35 49.2904C136.814 49.2904 135.465 48.9142 134.309 48.165C133.146 47.4159 132.247 46.3714 131.604 45.0315C130.961 43.6917 130.64 42.1125 130.64 40.3997C130.64 38.6868 130.961 37.1698 131.604 35.8486C132.247 34.5306 133.152 33.4923 134.309 32.7431C135.468 31.9939 136.817 31.6178 138.35 31.6178C139.882 31.6178 141.241 31.9939 142.419 32.7431C143.594 33.4923 144.517 34.5275 145.173 35.8486C145.835 37.1698 146.165 38.6464 146.165 40.3997C146.165 42.1529 145.832 43.6948 145.173 45.0315C144.514 46.3683 143.597 47.4159 142.419 48.165Z" fill="#170F2A"/>
<path d="M167.005 19.2051H160.418V26.3767H154.847V32.482H160.418V54.5937H167.005V32.482H173.16V26.3767H167.005V19.2051Z" fill="#170F2A"/>
<path d="M195.536 26.3705V30.3495C194.989 29.532 194.333 28.7921 193.556 28.1393C192.664 27.3901 191.628 26.8088 190.45 26.3985C189.272 25.9881 187.97 25.783 186.543 25.783C184.078 25.783 181.864 26.4109 179.903 27.6575C177.938 28.9102 176.387 30.6386 175.243 32.852C174.099 35.0684 173.53 37.5802 173.53 40.4029C173.53 43.2255 174.099 45.7404 175.243 47.9537C176.387 50.1671 177.901 51.9141 179.794 53.2011C181.687 54.4849 183.792 55.1284 186.111 55.1284C187.466 55.1253 188.744 54.9077 189.941 54.4818C191.137 54.056 192.228 53.4933 193.208 52.797C194.1 52.1628 194.852 51.4354 195.48 50.6271V54.5875H202.173V26.3736H195.533L195.536 26.3705ZM192.005 48.1651C190.826 48.9143 189.471 49.2904 187.935 49.2904C186.4 49.2904 185.051 48.9143 183.891 48.1651C182.728 47.4159 181.83 46.3714 181.187 45.0316C180.543 43.6918 180.22 42.1126 180.22 40.3997C180.22 38.6869 180.543 37.1699 181.187 35.8487C181.83 34.5306 182.732 33.4924 183.891 32.7432C185.051 31.994 186.4 31.6179 187.935 31.6179C189.471 31.6179 190.826 31.994 192.005 32.7432C193.183 33.4924 194.103 34.5275 194.762 35.8487C195.424 37.1699 195.754 38.6465 195.754 40.3997C195.754 42.153 195.421 43.6949 194.762 45.0316C194.103 46.3683 193.183 47.4159 192.005 48.1651Z" fill="#170F2A"/>
<path d="M228.848 16.4385H221.888V53.9161H228.848V38.5502H244.426V32.2334H228.848V22.864H246.729V16.4416H228.848V16.4385Z" fill="#170F2A"/>
<path d="M271.508 29.0503C270.333 27.8161 268.937 26.8431 267.333 26.1313C265.726 25.4194 263.997 25.0619 262.138 25.0619C260.031 25.0619 258.097 25.4256 256.328 26.1592C254.563 26.8929 253.046 27.928 251.781 29.2648C250.512 30.6015 249.521 32.1807 248.806 34.0023C248.094 35.824 247.736 37.8384 247.736 40.0517C247.736 42.8339 248.367 45.3084 249.636 47.4658C250.904 49.6263 252.67 51.3298 254.939 52.5795C257.202 53.8323 259.816 54.454 262.779 54.454H262.782C264.103 54.454 265.443 54.2768 266.798 53.9193C268.151 53.5618 269.447 53.0707 270.678 52.4458C271.912 51.821 273.006 51.0625 273.973 50.1703L270.706 45.6193C269.422 46.729 268.225 47.4938 267.122 47.9228C266.015 48.3518 264.803 48.5662 263.481 48.5662C261.585 48.5662 259.938 48.2025 258.526 47.4689C257.115 46.7353 256.027 45.6939 255.259 44.3354C254.74 43.4152 254.398 42.4174 254.233 41.2858H275.042L275.098 38.9823C275.133 36.9835 274.837 35.1339 274.212 33.4397C273.584 31.7423 272.686 30.2813 271.508 29.0472V29.0503ZM257.724 31.9195C258.918 31.245 260.391 30.903 262.138 30.903C263.282 30.903 264.327 31.1424 265.272 31.6242C266.217 32.106 266.991 32.7682 267.6 33.6044C268.207 34.4468 268.561 35.4198 268.67 36.5234V36.7908H254.376C254.525 36.0758 254.74 35.4198 255.02 34.8385C255.629 33.5702 256.527 32.5972 257.724 31.9195Z" fill="#170F2A"/>
<path d="M287.775 18.5337H281.191V25.7022H275.621V31.8075H281.191V53.9192H287.775V31.8075H293.93V25.7022H287.775V18.5337Z" fill="#170F2A"/>
<path d="M304.655 32.1028C305.883 31.335 307.288 30.9526 308.858 30.9526C309.784 30.9526 310.711 31.1298 311.64 31.4873C312.57 31.8448 313.443 32.3298 314.264 32.9328C315.085 33.5421 315.762 34.2198 316.297 34.969L319.937 30.5765C318.793 28.8636 317.189 27.5269 315.119 26.5601C313.052 25.5965 310.857 25.1146 308.215 25.1146C305.572 25.1146 303.197 25.755 301.093 27.042C298.985 28.3289 297.325 30.076 296.113 32.2893C294.9 34.5027 294.291 36.9989 294.291 39.7843C294.291 42.5696 294.9 45.0658 296.113 47.2792C297.325 49.4925 298.988 51.2396 301.093 52.5265C303.197 53.8104 305.569 54.4539 308.215 54.4539H308.218C310.571 54.457 312.809 53.9658 314.935 52.9835C317.056 52.0043 318.725 50.7235 319.937 49.1537L316.297 44.7114C315.619 45.5632 314.889 46.2813 314.105 46.8502C313.322 47.4191 312.489 47.8574 311.615 48.162C310.739 48.4636 309.837 48.6159 308.911 48.6159C307.375 48.6159 305.986 48.2242 304.736 47.4377C303.483 46.6543 302.495 45.6005 301.764 44.2793C301.031 42.9613 300.667 41.4629 300.667 39.7843C300.667 38.1056 301.024 36.5979 301.736 35.2612C302.448 33.9245 303.421 32.8707 304.655 32.1028Z" fill="#170F2A"/>
<path d="M343.423 26.4017C341.977 25.5406 340.184 25.1147 338.042 25.1147C336.544 25.1147 335.076 25.438 333.653 26.0815C332.226 26.7249 330.992 27.5705 329.956 28.6243C329.636 28.9476 329.356 29.2834 329.102 29.6284V14.3029H322.57V53.9161H329.154V36.8933C329.154 36.0353 329.322 35.2488 329.664 34.5369C330 33.8251 330.466 33.1909 331.054 32.6376C331.644 32.0842 332.341 31.6521 333.143 31.3506C333.945 31.0491 334.831 30.8967 335.794 30.8967C336.969 30.8625 337.97 31.0677 338.791 31.5122C339.612 31.963 340.218 32.6562 340.613 33.6012C341.004 34.5494 341.2 35.7369 341.2 37.1637V53.9193H347.788V36.6788C347.788 34.1079 347.424 31.9692 346.69 30.2564C345.957 28.5435 344.869 27.2596 343.423 26.4048V26.4017Z" fill="#170F2A"/>
<path d="M374.724 29.0503C373.546 27.8161 372.156 26.8431 370.552 26.1313C368.945 25.4194 367.213 25.0619 365.357 25.0619C363.247 25.0619 361.313 25.4256 359.547 26.1592C357.779 26.8929 356.265 27.928 354.996 29.2648C353.728 30.6015 352.736 32.1807 352.025 34.0023C351.31 35.824 350.952 37.8384 350.952 40.0517C350.952 42.8339 351.586 45.3084 352.851 47.4658C354.117 49.6263 355.882 51.3298 358.152 52.5795C360.418 53.8323 363.035 54.454 365.995 54.454H366.001C367.322 54.454 368.659 54.2768 370.014 53.9193C371.37 53.5618 372.663 53.0707 373.897 52.4458C375.125 51.821 376.222 51.0625 377.186 50.1703L373.922 45.6193C372.641 46.729 371.441 47.4938 370.337 47.9228C369.234 48.3518 368.018 48.5662 366.697 48.5662C364.807 48.5662 363.157 48.2025 361.745 47.4689C360.334 46.7353 359.243 45.6939 358.478 44.3354C357.956 43.4152 357.617 42.4174 357.449 41.2858H378.258L378.314 38.9823C378.348 36.9835 378.053 35.1339 377.431 33.4397C376.803 31.7423 375.902 30.2813 374.724 29.0472V29.0503ZM360.937 31.9195C362.137 31.245 363.607 30.903 365.357 30.903C366.501 30.903 367.543 31.1424 368.488 31.6242C369.433 32.106 370.21 32.7682 370.819 33.6044C371.422 34.4468 371.78 35.4198 371.889 36.5234V36.7908H357.592C357.744 36.0758 357.956 35.4198 358.236 34.8385C358.842 33.5702 359.74 32.5972 360.937 31.9195Z" fill="#170F2A"/>
<path d="M381.852 53.9162V53.9131H381.849L381.852 53.9162Z" fill="#170F2A"/>
<path d="M398.635 25.2701C398.082 25.1644 397.504 25.1116 396.894 25.1116C395.505 25.1116 394.174 25.4442 392.906 26.1032C391.641 26.7654 390.528 27.6669 389.561 28.8077C389.104 29.3455 388.716 29.9206 388.389 30.5237L388.33 25.7022H381.852V53.9099H388.489V38.8673C388.489 37.8725 388.657 36.9679 388.995 36.1659C389.334 35.3607 389.807 34.6582 390.416 34.0489C391.022 33.4427 391.728 32.9702 392.53 32.6314C393.332 32.2925 394.184 32.1246 395.073 32.1246C395.645 32.1246 396.217 32.1961 396.786 32.3391C397.358 32.4821 397.836 32.6593 398.231 32.8738L400 25.6463C399.643 25.5033 399.189 25.3789 398.635 25.2701Z" fill="#170F2A"/>
<path d="M21.7417 42.8588V55.4114L10.8708 61.6909V49.1382L21.7417 42.8588Z" fill="#7A6BEB"/>
<path d="M43.4804 5.20081V17.7566L32.6095 24.0329V11.4771L43.4804 5.20081Z" fill="#7A6BEB"/>
<path d="M43.4804 55.4114V67.9671L32.6095 74.2435V61.6908L43.4804 55.4114Z" fill="#7A6BEB"/>
<path d="M36.0912 0.932602C33.9369 -0.31396 31.2822 -0.31396 29.131 0.932602L21.7418 5.20075L10.8709 11.4771L3.48167 15.7452C1.32739 16.9887 0 19.286 0 21.7729V51.3919C0 53.8788 1.32739 56.1761 3.48167 57.4226L10.8709 61.6908V24.0328L21.7418 17.7565L32.6127 11.4802L43.4835 5.20386L36.0943 0.93571H36.0912V0.932602Z" fill="#241E3B"/>
<path d="M54.3514 11.4771L43.4805 17.7565L32.6096 24.0328L21.7418 30.3091V67.9671L32.6096 74.2434V36.5855L43.4805 30.3091L54.3514 24.0328L65.2222 17.7565L54.3514 11.4771Z" fill="#241E3B"/>
<path d="M65.2222 30.306V42.8587L54.3514 49.1381V61.6908L43.4805 67.9671V42.8618L54.3514 36.5855L65.2222 30.3091V30.306Z" fill="#241E3B"/>
<path d="M65.2221 30.306V17.7565H65.219L54.3481 24.0328V36.5855L54.3513 36.5823L65.2221 30.306Z" fill="#7A6BEB"/>
<path d="M65.2222 50.7112V42.8588L54.3513 49.1382V61.6877L61.1468 57.7647C63.6679 56.3098 65.2222 53.624 65.2222 50.7112Z" fill="#7A6BEB"/>
</g>
<defs>
<clipPath id="clip0_3092_2442">
<rect width="400" height="74.2403" fill="white"/>
</clipPath>
</defs>
</svg>
