<svg width="377" height="52" viewBox="0 0 377 52" fill="none" xmlns="http://www.w3.org/2000/svg">
<path d="M92.7826 13.0991C91.1946 11.4235 89.3016 10.1366 87.1096 9.24747C84.9146 8.35527 82.4626 7.91077 79.7486 7.91077H64.7057V45.3791H79.7486C82.4626 45.3791 84.9216 44.9346 87.1346 44.0424C89.3476 43.1502 91.2376 41.8726 92.8076 40.2126C94.3776 38.5526 95.5836 36.5724 96.4196 34.272C97.2626 31.9685 97.6786 29.4256 97.6786 26.6434C97.6786 23.8612 97.2566 21.3245 96.4196 19.0428C95.5836 16.7611 94.3686 14.7778 92.7796 13.1022L92.7826 13.0991ZM89.8736 31.7633C89.3726 33.2803 88.6456 34.5735 87.6786 35.6429C86.7146 36.7123 85.5426 37.536 84.1716 38.1049C82.7946 38.6738 81.2346 38.9629 79.4876 38.9629H71.6722V14.3425H79.4876C81.2346 14.3425 82.7886 14.6285 84.1476 15.2005C85.5056 15.7725 86.6746 16.5932 87.6536 17.6626C88.6326 18.7319 89.3756 20.0251 89.8766 21.5421C90.3706 23.0591 90.6256 24.7627 90.6256 26.6558C90.6256 28.549 90.3766 30.2525 89.8766 31.7695L89.8736 31.7633Z" fill="#170F2A"/>
<path d="M122.172 21.1412C121.625 20.3236 120.969 19.5837 120.192 18.9309C119.3 18.1817 118.265 17.6004 117.087 17.1901C115.908 16.7798 114.606 16.5746 113.179 16.5746C110.714 16.5746 108.501 17.2025 106.539 18.4491C104.574 19.7019 103.023 21.4303 101.879 23.6436C100.735 25.8601 100.166 28.3718 100.166 31.1945C100.166 34.0171 100.735 36.532 101.879 38.7453C103.023 40.9587 104.537 42.7057 106.43 43.9927C108.32 45.2766 110.428 45.9201 112.747 45.9201H112.75C114.105 45.917 115.383 45.6994 116.58 45.2735C117.777 44.8476 118.868 44.2849 119.847 43.5886C120.739 42.9544 121.492 42.227 122.119 41.4188V45.3792H128.809V17.1652H122.169V21.1443L122.172 21.1412ZM118.641 38.9598C117.463 39.709 116.107 40.0852 114.572 40.0852C113.036 40.0852 111.687 39.709 110.531 38.9598C109.368 38.2107 108.469 37.1662 107.826 35.8263C107.183 34.4865 106.862 32.9073 106.862 31.1945C106.862 29.4816 107.183 27.9646 107.826 26.6434C108.469 25.3254 109.374 24.2871 110.531 23.5379C111.69 22.7887 113.039 22.4126 114.572 22.4126C116.104 22.4126 117.463 22.7887 118.641 23.5379C119.816 24.2871 120.739 25.3223 121.395 26.6434C122.057 27.9646 122.387 29.4412 122.387 31.1945C122.387 32.9477 122.054 34.4896 121.395 35.8263C120.736 37.1631 119.819 38.2107 118.641 38.9598Z" fill="#170F2A"/>
<path d="M143.227 9.99988H136.64V17.1715H131.069V23.2768H136.64V45.3885H143.227V23.2768H149.382V17.1715H143.227V9.99988Z" fill="#170F2A"/>
<path d="M171.758 17.1653V21.1443C171.211 20.3268 170.555 19.5869 169.778 18.9341C168.886 18.1849 167.85 17.6036 166.672 17.1933C165.494 16.7829 164.192 16.5778 162.765 16.5778C160.3 16.5778 158.086 17.2057 156.125 18.4523C154.16 19.705 152.609 21.4334 151.465 23.6468C150.321 25.8632 149.752 28.375 149.752 31.1977C149.752 34.0203 150.321 36.5352 151.465 38.7485C152.609 40.9619 154.123 42.7089 156.016 43.9959C157.909 45.2797 160.014 45.9232 162.333 45.9232C163.688 45.9201 164.966 45.7025 166.163 45.2766C167.359 44.8508 168.45 44.2881 169.43 43.5918C170.322 42.9576 171.074 42.2302 171.702 41.4219V45.3823H178.395V17.1684H171.755L171.758 17.1653ZM168.227 38.9599C167.048 39.7091 165.693 40.0852 164.157 40.0852C162.622 40.0852 161.273 39.7091 160.113 38.9599C158.95 38.2107 158.052 37.1662 157.409 35.8264C156.765 34.4866 156.442 32.9074 156.442 31.1945C156.442 29.4817 156.765 27.9647 157.409 26.6435C158.052 25.3254 158.954 24.2872 160.113 23.538C161.273 22.7888 162.622 22.4127 164.157 22.4127C165.693 22.4127 167.048 22.7888 168.227 23.538C169.405 24.2872 170.325 25.3223 170.984 26.6435C171.646 27.9647 171.976 29.4413 171.976 31.1945C171.976 32.9478 171.643 34.4897 170.984 35.8264C170.325 37.1631 169.405 38.2107 168.227 38.9599Z" fill="#170F2A"/>
<path d="M205.07 7.23328H198.11V44.7109H205.07V29.345H220.648V23.0282H205.07V13.6588H222.951V7.23638H205.07V7.23328Z" fill="#170F2A"/>
<path d="M247.73 19.845C246.555 18.6108 245.159 17.6378 243.555 16.926C241.948 16.2141 240.219 15.8566 238.36 15.8566C236.253 15.8566 234.319 16.2203 232.55 16.9539C230.785 17.6876 229.268 18.7227 228.003 20.0595C226.734 21.3962 225.743 22.9754 225.028 24.797C224.316 26.6187 223.958 28.6331 223.958 30.8464C223.958 33.6286 224.589 36.1031 225.858 38.2605C227.126 40.421 228.892 42.1245 231.161 43.3742C233.424 44.627 236.038 45.2487 239.001 45.2487H239.004C240.325 45.2487 241.665 45.0715 243.02 44.714C244.373 44.3565 245.669 43.8654 246.9 43.2405C248.134 42.6157 249.228 41.8572 250.195 40.965L246.928 36.414C245.644 37.5237 244.447 38.2885 243.344 38.7175C242.237 39.1465 241.025 39.3609 239.703 39.3609C237.807 39.3609 236.16 38.9972 234.748 38.2636C233.337 37.53 232.249 36.4886 231.481 35.1301C230.962 34.2099 230.62 33.2121 230.455 32.0805H251.264L251.32 29.777C251.355 27.7782 251.059 25.9286 250.434 24.2344C249.806 22.537 248.908 21.076 247.73 19.8419V19.845ZM233.946 22.7142C235.14 22.0397 236.613 21.6977 238.36 21.6977C239.504 21.6977 240.549 21.9371 241.494 22.4189C242.439 22.9007 243.213 23.5629 243.822 24.3991C244.429 25.2415 244.783 26.2145 244.892 27.3181V27.5855H230.598C230.747 26.8705 230.962 26.2145 231.242 25.6332C231.851 24.3649 232.749 23.3919 233.946 22.7142Z" fill="#170F2A"/>
<path d="M263.997 9.32849H257.413V16.497H251.843V22.6023H257.413V44.714H263.997V22.6023H270.152V16.497H263.997V9.32849Z" fill="#170F2A"/>
<path d="M280.877 22.8975C282.105 22.1297 283.51 21.7473 285.08 21.7473C286.006 21.7473 286.933 21.9245 287.862 22.282C288.792 22.6395 289.665 23.1245 290.486 23.7275C291.307 24.3368 291.984 25.0145 292.519 25.7637L296.159 21.3712C295.015 19.6583 293.411 18.3216 291.341 17.3548C289.274 16.3912 287.079 15.9093 284.437 15.9093C281.794 15.9093 279.419 16.5497 277.315 17.8367C275.207 19.1236 273.547 20.8707 272.335 23.084C271.122 25.2974 270.513 27.7936 270.513 30.579C270.513 33.3643 271.122 35.8605 272.335 38.0739C273.547 40.2872 275.21 42.0343 277.315 43.3212C279.419 44.6051 281.791 45.2486 284.437 45.2486H284.44C286.793 45.2517 289.031 44.7605 291.157 43.7782C293.278 42.799 294.947 41.5182 296.159 39.9484L292.519 35.5061C291.841 36.3579 291.111 37.076 290.327 37.6449C289.544 38.2138 288.711 38.6521 287.837 38.9567C286.961 39.2583 286.059 39.4106 285.133 39.4106C283.597 39.4106 282.208 39.0189 280.958 38.2324C279.705 37.449 278.717 36.3952 277.986 35.074C277.253 33.756 276.889 32.2576 276.889 30.579C276.889 28.9003 277.246 27.3926 277.958 26.0559C278.67 24.7192 279.643 23.6654 280.877 22.8975Z" fill="#170F2A"/>
<path d="M319.645 17.1963C318.199 16.3352 316.406 15.9093 314.264 15.9093C312.766 15.9093 311.298 16.2326 309.875 16.8761C308.448 17.5195 307.214 18.3651 306.178 19.4189C305.858 19.7422 305.578 20.078 305.324 20.423V5.09753H298.792V44.7107H305.376V27.6879C305.376 26.8299 305.544 26.0434 305.886 25.3315C306.222 24.6197 306.688 23.9855 307.276 23.4322C307.866 22.8788 308.563 22.4467 309.365 22.1452C310.167 21.8437 311.053 21.6913 312.016 21.6913C313.191 21.6571 314.192 21.8623 315.013 22.3068C315.834 22.7576 316.44 23.4508 316.835 24.3958C317.226 25.344 317.422 26.5315 317.422 27.9583V44.7139H324.01V27.4734C324.01 24.9025 323.646 22.7638 322.912 21.051C322.179 19.3381 321.091 18.0542 319.645 17.1994V17.1963Z" fill="#170F2A"/>
<path d="M350.946 19.845C349.768 18.6108 348.378 17.6378 346.774 16.926C345.167 16.2141 343.435 15.8566 341.579 15.8566C339.469 15.8566 337.535 16.2203 335.769 16.9539C334.001 17.6876 332.487 18.7227 331.218 20.0595C329.95 21.3962 328.958 22.9754 328.247 24.797C327.532 26.6187 327.174 28.6331 327.174 30.8464C327.174 33.6286 327.808 36.1031 329.073 38.2605C330.339 40.421 332.104 42.1245 334.374 43.3742C336.64 44.627 339.257 45.2487 342.217 45.2487H342.223C343.544 45.2487 344.881 45.0715 346.236 44.714C347.592 44.3565 348.885 43.8654 350.119 43.2405C351.347 42.6157 352.444 41.8572 353.408 40.965L350.144 36.414C348.863 37.5237 347.663 38.2885 346.559 38.7175C345.456 39.1465 344.24 39.3609 342.919 39.3609C341.029 39.3609 339.379 38.9972 337.967 38.2636C336.556 37.53 335.465 36.4886 334.7 35.1301C334.178 34.2099 333.839 33.2121 333.671 32.0805H354.48L354.536 29.777C354.57 27.7782 354.275 25.9286 353.653 24.2344C353.025 22.537 352.124 21.076 350.946 19.8419V19.845ZM337.159 22.7142C338.359 22.0397 339.829 21.6977 341.579 21.6977C342.723 21.6977 343.765 21.9371 344.71 22.4189C345.655 22.9007 346.432 23.5629 347.041 24.3991C347.644 25.2415 348.002 26.2145 348.111 27.3181V27.5855H333.814C333.966 26.8705 334.178 26.2145 334.458 25.6332C335.064 24.3649 335.962 23.3919 337.159 22.7142Z" fill="#170F2A"/>
<path d="M374.857 16.0649C374.304 15.9592 373.726 15.9064 373.116 15.9064C371.727 15.9064 370.396 16.239 369.128 16.898C367.863 17.5602 366.75 18.4617 365.783 19.6025C365.326 20.1403 364.938 20.7154 364.611 21.3185L364.552 16.497H358.074V44.7047H364.711V29.6621C364.711 28.6673 364.879 27.7627 365.217 26.9607C365.556 26.1555 366.029 25.453 366.638 24.8437C367.244 24.2375 367.95 23.765 368.752 23.4262C369.554 23.0873 370.406 22.9194 371.295 22.9194C371.867 22.9194 372.439 22.9909 373.008 23.1339C373.58 23.2769 374.058 23.4541 374.453 23.6686L376.222 16.4411C375.865 16.2981 375.411 16.1737 374.857 16.0649Z" fill="#170F2A"/>
<mask id="mask0_75_147" style="mask-type:luminance" maskUnits="userSpaceOnUse" x="0" y="0" width="45" height="52">
<path d="M44.7057 0H0V51.1796H44.7057V0Z" fill="white"/>
</mask>
<g mask="url(#mask0_75_147)">
<path d="M14.9027 29.5455V38.199L7.45139 42.528V33.8744L14.9027 29.5455Z" fill="#7A6BEB"/>
<path d="M29.8031 3.58508V12.2408L22.3518 16.5675V7.91182L29.8031 3.58508Z" fill="#7A6BEB"/>
<path d="M29.8031 38.1993V46.855L22.3518 51.1818V42.5282L29.8031 38.1993Z" fill="#7A6BEB"/>
<path d="M24.7383 0.642805C23.2617 -0.216547 21.442 -0.216547 19.9675 0.642805L14.9026 3.58517L7.4513 7.91195L2.38647 10.8543C0.909839 11.7115 0 13.2952 0 15.0096V35.4283C0 37.1427 0.909839 38.7264 2.38647 39.5857L7.4513 42.5281V16.5676L14.9026 12.2408L22.354 7.91408L29.8053 3.58731L24.7404 0.644948H24.7383V0.642805Z" fill="#241E3B"/>
<path d="M37.2544 7.91174L29.8031 12.2406L22.3518 16.5674L14.9026 20.8941V46.8547L22.3518 51.1814V25.2209L29.8031 20.8941L37.2544 16.5674L44.7057 12.2406L37.2544 7.91174Z" fill="#241E3B"/>
<path d="M44.7057 20.8922V29.5458L37.2544 33.8746V42.5282L29.8031 46.8549V29.5479L37.2544 25.2212L44.7057 20.8943V20.8922Z" fill="#241E3B"/>
<path d="M44.7058 20.8919V12.2406H44.7037L37.2523 16.5673V25.2209L37.2544 25.2187L44.7058 20.8919Z" fill="#7A6BEB"/>
<path d="M44.7057 34.9588V29.5455L37.2544 33.8744V42.5258L41.9122 39.8213C43.6403 38.8184 44.7057 36.9668 44.7057 34.9588Z" fill="#7A6BEB"/>
</g>
</svg>
